<svg width="498" height="261" viewBox="0 0 498 261" fill="none" xmlns="http://www.w3.org/2000/svg">
<path d="M47.2709 151.809C54.2546 151.809 59.6843 153.757 63.5591 157.651C67.479 161.501 69.439 167.026 69.439 174.226C69.439 181.427 67.479 186.975 63.5591 190.87C59.6843 194.719 54.2546 196.644 47.2709 196.644H31.5234V151.809H47.2709ZM47.2709 190.462C52.0019 190.462 55.6064 189.058 58.0846 186.25C60.6077 183.397 61.8694 179.389 61.8694 174.226C61.8694 169.064 60.6077 165.078 58.0846 162.27C55.6064 159.417 52.0019 157.991 47.2709 157.991H38.7551V190.462H47.2709ZM80.1667 196.644V151.809H112.473V158.059H87.3983V170.966H106.998V177.08H87.3983V190.394H113.419V196.644H80.1667ZM140.3 151.809C143.499 151.809 146.248 152.375 148.546 153.507C150.889 154.64 152.714 156.247 154.02 158.33C155.327 160.414 155.98 162.927 155.98 165.871C155.98 168.769 155.327 171.283 154.02 173.411C152.714 175.495 150.889 177.102 148.546 178.234C146.248 179.367 143.499 179.933 140.3 179.933H130.365V196.644H123.134V151.809H140.3ZM139.152 173.683C142.35 173.683 144.694 173.026 146.18 171.713C147.713 170.354 148.478 168.407 148.478 165.871C148.478 163.289 147.713 161.342 146.18 160.029C144.694 158.67 142.35 157.991 139.152 157.991H130.365V173.683H139.152ZM198.914 196.644H191.276L187.019 184.892H168.297L164.039 196.644H156.605L173.434 151.809H182.085L198.914 196.644ZM170.325 178.982H184.991L177.692 158.059L170.325 178.982ZM225.005 151.809C229.78 151.809 233.565 153.009 236.359 155.409C239.198 157.81 240.617 161.048 240.617 165.124C240.617 169.335 239.198 172.596 236.359 174.906C233.565 177.17 229.78 178.302 225.005 178.302L224.329 178.71H213.988V196.644H206.824V151.809H225.005ZM224.464 172.664C227.393 172.664 229.555 172.075 230.952 170.898C232.394 169.675 233.115 167.818 233.115 165.327C233.115 162.882 232.394 161.048 230.952 159.825C229.555 158.602 227.393 157.991 224.464 157.991H213.988V172.664H224.464ZM228.722 174.158L243.253 196.644H234.939L222.504 177.012L228.722 174.158ZM284.362 151.809V158.059H269.087V196.644H261.856V158.059H246.581V151.809H284.362ZM338.643 151.809V196.644H331.952V170.694L332.492 158.33H332.425L318.84 196.644H312.825L299.24 158.33H299.172L299.713 170.694V196.644H293.022V151.809H303.768L312.757 177.759L315.866 188.424H316.001L319.178 177.759L328.099 151.809H338.643ZM351.896 196.644V151.809H384.2V158.059H359.126V170.966H378.725V177.08H359.126V190.394H385.146V196.644H351.896ZM431.428 151.809V196.644H422.845L405.61 168.384L401.285 160.436H401.217L401.488 167.705V196.644H394.864V151.809H403.38L420.547 180.001L424.94 188.084H425.007L424.737 180.748V151.809H431.428ZM477.813 151.809V158.059H462.539V196.644H455.307V158.059H440.033V151.809H477.813Z" fill="white"/>
<path d="M31.7295 132.288V37.8986H68.7238C80.0117 37.8986 88.2642 40.1869 93.4815 44.7633C98.6988 49.3397 101.307 55.6799 101.307 63.7841C101.307 68.7421 99.8843 73.1755 97.0386 77.0844C94.1929 80.8982 90.0193 83.3294 84.5175 84.3781V84.5211C90.5885 85.4747 95.2839 88.001 98.6038 92.1008C102.019 96.1052 103.726 100.777 103.726 106.116C103.726 114.22 100.785 120.608 94.9043 125.28C89.0233 129.952 80.4862 132.288 69.2929 132.288H31.7295ZM46.6695 119.559H70.0043C75.9803 119.559 80.4385 118.32 83.3792 115.841C86.4145 113.362 87.9323 109.882 87.9323 105.401C87.9323 100.92 86.4145 97.4399 83.3792 94.9611C80.4385 92.4823 75.9803 91.2428 70.0043 91.2428H46.6695V119.559ZM46.6695 78.5145H67.5855C79.5375 78.5145 85.5135 73.8905 85.5135 64.6422C85.5135 55.3939 79.5375 50.7699 67.5855 50.7699H46.6695V78.5145ZM164.213 37.8986C174.268 37.8986 182.236 40.4253 188.117 45.4784C194.093 50.5314 197.081 57.3485 197.081 65.9293C197.081 74.7962 194.093 81.6608 188.117 86.5233C182.236 91.2903 174.268 93.674 164.213 93.674L162.79 94.5321H141.021V132.288H125.938V37.8986H164.213ZM163.075 81.8038C169.24 81.8038 173.794 80.5643 176.734 78.0855C179.77 75.5112 181.287 71.6023 181.287 66.3584C181.287 61.2099 179.77 57.3485 176.734 54.7743C173.794 52.2 169.24 50.9129 163.075 50.9129H141.021V81.8038H163.075ZM172.039 84.9501L202.63 132.288H185.129L158.949 90.9567L172.039 84.9501ZM299.509 132.288H283.431L274.467 107.546H235.054L226.09 132.288H210.438L245.867 37.8986H264.08L299.509 132.288ZM239.322 95.1041H270.198L254.831 51.0559L239.322 95.1041ZM347.204 36.4685C355.646 36.4685 362.949 38.0892 369.117 41.331C375.282 44.4773 380.5 49.1492 384.769 55.3463L374.524 65.2143C370.917 59.6843 366.841 55.7278 362.288 53.3441C357.827 50.8653 352.515 49.6258 346.35 49.6258C341.797 49.6258 338.05 50.2454 335.109 51.4849C332.169 52.7245 329.987 54.3928 328.564 56.4904C327.236 58.4926 326.572 60.7808 326.572 63.3551C326.572 66.3108 327.568 68.8851 329.56 71.0778C331.647 73.2706 335.489 74.9867 341.085 76.2263L360.153 80.5167C369.26 82.5189 375.709 85.5698 379.504 89.6696C383.296 93.7694 385.196 98.9655 385.196 105.258C385.196 111.074 383.631 116.127 380.5 120.418C377.37 124.708 373.005 127.997 367.41 130.285C361.907 132.574 355.409 133.718 347.915 133.718C341.275 133.718 335.299 132.86 329.987 131.144C324.675 129.427 320.027 127.092 316.043 124.136C312.059 121.18 308.786 117.796 306.225 113.982L316.754 103.399C318.746 106.736 321.26 109.739 324.296 112.409C327.331 114.983 330.841 116.985 334.825 118.415C338.904 119.845 343.409 120.561 348.342 120.561C352.705 120.561 356.454 120.036 359.584 118.987C362.807 117.939 365.226 116.413 366.841 114.411C368.548 112.313 369.402 109.835 369.402 106.974C369.402 104.209 368.452 101.778 366.556 99.6806C364.753 97.5829 361.338 95.9622 356.312 94.8181L335.678 90.0986C329.987 88.8591 325.292 87.0954 321.592 84.8071C317.893 82.5189 315.142 79.7541 313.34 76.5123C311.537 73.1755 310.636 69.4571 310.636 65.3573C310.636 60.0182 312.059 55.2033 314.905 50.9129C317.845 46.527 322.066 43.0471 327.568 40.4729C333.07 37.8032 339.615 36.4685 347.204 36.4685ZM438.496 36.4685C446.937 36.4685 454.24 38.0892 460.408 41.331C466.572 44.4773 471.791 49.1492 476.059 55.3463L465.815 65.2143C462.208 59.6843 458.131 55.7278 453.578 53.3441C449.118 50.8653 443.807 49.6258 437.642 49.6258C433.089 49.6258 429.34 50.2454 426.402 51.4849C423.46 52.7245 421.279 54.3928 419.856 56.4904C418.526 58.4926 417.864 60.7808 417.864 63.3551C417.864 66.3108 418.86 68.8851 420.852 71.0778C422.937 73.2706 426.779 74.9867 432.378 76.2263L451.444 80.5167C460.55 82.5189 466.999 85.5698 470.795 89.6696C474.587 93.7694 476.486 98.9655 476.486 105.258C476.486 111.074 474.921 116.127 471.791 120.418C468.66 124.708 464.296 127.997 458.7 130.285C453.198 132.574 446.699 133.718 439.207 133.718C432.566 133.718 426.59 132.86 421.279 131.144C415.965 129.427 411.319 127.092 407.335 124.136C403.351 121.18 400.079 117.796 397.518 113.982L408.047 103.399C410.039 106.736 412.55 109.739 415.588 112.409C418.622 114.983 422.133 116.985 426.117 118.415C430.194 119.845 434.7 120.561 439.634 120.561C443.995 120.561 447.744 120.036 450.875 118.987C454.098 117.939 456.516 116.413 458.131 114.411C459.839 112.313 460.692 109.835 460.692 106.974C460.692 104.209 459.743 101.778 457.847 99.6806C456.043 97.5829 452.628 95.9622 447.602 94.8181L426.971 90.0986C421.279 88.8591 416.584 87.0954 412.884 84.8071C409.185 82.5189 406.432 79.7541 404.632 76.5123C402.828 73.1755 401.928 69.4571 401.928 65.3573C401.928 60.0182 403.351 55.2033 406.197 50.9129C409.135 46.527 413.358 43.0471 418.86 40.4729C424.36 37.8032 430.905 36.4685 438.496 36.4685Z" fill="white"/>
<path d="M309.472 225.247H199.2V228.822H309.472V225.247Z" fill="#999999"/>
<path d="M480.214 1.78766H17.7855C8.94496 1.78766 1.77832 8.99097 1.77832 17.8767V210.945C1.77832 219.831 8.94496 227.034 17.7855 227.034H480.214C489.055 227.034 496.221 219.831 496.221 210.945V17.8767C496.221 8.99097 489.055 1.78766 480.214 1.78766Z" stroke="white"/>
<path d="M309.471 221.671H195.643V232.397H309.471V221.671Z" fill="#457B9D"/>
<path d="M219.575 246.699V208.943H245.927V213.233H224.128V225.418H241.089V229.709H224.128V242.408H246.78V246.699H219.575ZM284.611 208.943V232.626C284.611 237.47 283.34 241.131 280.798 243.61C278.256 246.05 274.613 247.271 269.87 247.271C265.165 247.271 261.523 246.05 258.942 243.61C256.401 241.131 255.129 237.47 255.129 232.626V208.943H259.682V231.482C259.682 235.41 260.498 238.308 262.13 240.177C263.799 242.046 266.379 242.98 269.87 242.98C273.361 242.98 275.922 242.046 277.553 240.177C279.223 238.308 280.058 235.41 280.058 231.482V208.943H284.611Z" fill="white"/>
</svg>
