<svg width="64" height="33" viewBox="0 0 64 33" fill="none" xmlns="http://www.w3.org/2000/svg">
<g clip-path="url(#clip0_207_2226)">
<path d="M6.07455 19.1943C6.97206 19.1943 7.66984 19.4405 8.16781 19.9329C8.67158 20.4197 8.92347 21.1182 8.92347 22.0287C8.92347 22.9391 8.67158 23.6406 8.16781 24.133C7.66984 24.6197 6.97206 24.863 6.07455 24.863H4.05078V19.1943H6.07455ZM6.07455 24.0814C6.68255 24.0814 7.14578 23.9039 7.46427 23.5489C7.78852 23.1882 7.95067 22.6814 7.95067 22.0287C7.95067 21.3759 7.78852 20.872 7.46427 20.517C7.14578 20.1562 6.68255 19.9759 6.07455 19.9759H4.98015V24.0814H6.07455ZM10.3021 24.863V19.1943H14.4539V19.9845H11.2315V21.6164H13.7503V22.3894H11.2315V24.0729H14.5755V24.863H10.3021ZM18.0302 19.1943C18.4413 19.1943 18.7945 19.2658 19.0898 19.409C19.3909 19.5522 19.6255 19.7554 19.7934 20.0188C19.9613 20.2822 20.0452 20.6 20.0452 20.9722C20.0452 21.3387 19.9613 21.6565 19.7934 21.9256C19.6255 22.189 19.3909 22.3922 19.0898 22.5354C18.7945 22.6786 18.4413 22.7501 18.0302 22.7501H16.7534V24.863H15.824V19.1943H18.0302ZM17.8825 21.9599C18.2936 21.9599 18.5947 21.8769 18.7858 21.7109C18.9827 21.5391 19.0811 21.2929 19.0811 20.9722C19.0811 20.6458 18.9827 20.3996 18.7858 20.2335C18.5947 20.0618 18.2936 19.9759 17.8825 19.9759H16.7534V21.9599H17.8825ZM25.5628 24.863H24.5813L24.0341 23.3771H21.6282L21.081 24.863H20.1255L22.2883 19.1943H23.4L25.5628 24.863ZM21.8887 22.6299H23.7735L22.8355 19.9845L21.8887 22.6299ZM28.9158 19.1943C29.5296 19.1943 30.016 19.346 30.375 19.6495C30.7398 19.953 30.9222 20.3624 30.9222 20.8777C30.9222 21.4102 30.7398 21.8225 30.375 22.1145C30.016 22.4008 29.5296 22.544 28.9158 22.544L28.829 22.5955H27.5001V24.863H26.5794V19.1943H28.9158ZM28.8463 21.8311C29.2227 21.8311 29.5007 21.7567 29.6802 21.6078C29.8655 21.4532 29.9581 21.2184 29.9581 20.9035C29.9581 20.5943 29.8655 20.3624 29.6802 20.2078C29.5007 20.0532 29.2227 19.9759 28.8463 19.9759H27.5001V21.8311H28.8463ZM29.3935 22.0201L31.261 24.863H30.1926L28.5945 22.3808L29.3935 22.0201ZM36.544 19.1943V19.9845H34.5811V24.863H33.6517V19.9845H31.6887V19.1943H36.544ZM43.5199 19.1943V24.863H42.66V21.582L42.7295 20.0188H42.7208L40.975 24.863H40.202L38.4561 20.0188H38.4474L38.5169 21.582V24.863H37.657V19.1943H39.0381L40.1933 22.4753L40.5928 23.8238H40.6102L41.0184 22.4753L42.1649 19.1943H43.5199ZM45.2231 24.863V19.1943H49.3747V19.9845H46.1523V21.6164H48.6711V22.3894H46.1523V24.0729H49.4963V24.863H45.2231ZM55.4442 19.1943V24.863H54.3411L52.1262 21.29L51.5703 20.2851H51.5616L51.5964 21.2041V24.863H50.7452V19.1943H51.8396L54.0457 22.7587L54.6103 23.7808H54.619L54.5843 22.8532V19.1943H55.4442ZM61.4053 19.1943V19.9845H59.4423V24.863H58.513V19.9845H56.55V19.1943H61.4053Z" fill="white"/>
<path d="M4.07812 16.726V4.79178H8.83241C10.2831 4.79178 11.3436 5.0811 12.0141 5.65973C12.6846 6.23836 13.0198 7.03999 13.0198 8.06466C13.0198 8.69152 12.837 9.25207 12.4713 9.7463C12.1056 10.2285 11.5692 10.5359 10.8621 10.6685V10.6866C11.6423 10.8071 12.2458 11.1266 12.6724 11.6449C13.1113 12.1512 13.3307 12.7419 13.3307 13.417C13.3307 14.4417 12.9528 15.2493 12.197 15.84C11.4412 16.4307 10.344 16.726 8.90555 16.726H4.07812ZM5.99812 15.1167H8.99698C9.76498 15.1167 10.3379 14.96 10.7158 14.6466C11.1059 14.3332 11.301 13.8931 11.301 13.3266C11.301 12.76 11.1059 12.32 10.7158 12.0066C10.3379 11.6932 9.76498 11.5364 8.99698 11.5364H5.99812V15.1167ZM5.99812 9.92713H8.68612C10.2221 9.92713 10.9901 9.34248 10.9901 8.17315C10.9901 7.00382 10.2221 6.41918 8.68612 6.41918H5.99812V9.92713ZM21.1041 4.79178C22.3963 4.79178 23.4203 5.11125 24.1761 5.75014C24.9441 6.38903 25.3281 7.25096 25.3281 8.33589C25.3281 9.45699 24.9441 10.3249 24.1761 10.9397C23.4203 11.5425 22.3963 11.8438 21.1041 11.8438L20.9213 11.9523H18.1236V16.726H16.1853V4.79178H21.1041ZM20.9579 10.343C21.7502 10.343 22.3354 10.1863 22.7133 9.87288C23.1034 9.5474 23.2984 9.05317 23.2984 8.39014C23.2984 7.73918 23.1034 7.25096 22.7133 6.92548C22.3354 6.6 21.7502 6.43726 20.9579 6.43726H18.1236V10.343H20.9579ZM22.1098 10.7408L26.0413 16.726H23.7921L20.4276 11.5003L22.1098 10.7408ZM38.4916 16.726H36.4253L35.2733 13.5978H30.2081L29.0561 16.726H27.0447L31.5979 4.79178H33.9384L38.4916 16.726ZM30.7567 12.0247H34.7247L32.7498 6.45535L30.7567 12.0247ZM44.621 4.61096C45.7059 4.61096 46.6445 4.81588 47.4372 5.22576C48.2294 5.62356 48.9001 6.21426 49.4486 6.99781L48.1321 8.24548C47.6685 7.54629 47.1446 7.04605 46.5595 6.74466C45.9862 6.43125 45.3036 6.27452 44.5113 6.27452C43.9261 6.27452 43.4446 6.35286 43.0667 6.50959C42.6888 6.66632 42.4084 6.87725 42.2256 7.14247C42.0549 7.39562 41.9696 7.68493 41.9696 8.01041C41.9696 8.38413 42.0976 8.70961 42.3536 8.98685C42.6218 9.2641 43.1155 9.48108 43.8347 9.63781L46.2852 10.1803C47.4555 10.4334 48.2843 10.8192 48.7721 11.3375C49.2594 11.8559 49.5035 12.5129 49.5035 13.3085C49.5035 14.0439 49.3024 14.6827 48.9001 15.2252C48.4978 15.7677 47.9369 16.1836 47.2178 16.4729C46.5106 16.7622 45.6755 16.9069 44.7124 16.9069C43.8591 16.9069 43.0911 16.7984 42.4084 16.5814C41.7258 16.3644 41.1284 16.0691 40.6164 15.6953C40.1044 15.3216 39.6838 14.8937 39.3547 14.4115L40.7078 13.0734C40.9638 13.4953 41.2869 13.8751 41.677 14.2126C42.0671 14.5381 42.5181 14.7912 43.0301 14.9721C43.5543 15.1529 44.1333 15.2433 44.7673 15.2433C45.328 15.2433 45.8098 15.177 46.2121 15.0444C46.6262 14.9118 46.9371 14.7189 47.1446 14.4658C47.3641 14.2005 47.4738 13.8871 47.4738 13.5255C47.4738 13.1759 47.3517 12.8685 47.1081 12.6033C46.8763 12.3381 46.4374 12.1332 45.7915 11.9885L43.1398 11.3918C42.4084 11.2351 41.805 11.0121 41.3296 10.7227C40.8541 10.4334 40.5006 10.0839 40.269 9.67398C40.0373 9.25207 39.9216 8.78194 39.9216 8.26357C39.9216 7.58851 40.1044 6.97973 40.4701 6.43726C40.848 5.88273 41.3905 5.44274 42.0976 5.11726C42.8046 4.77971 43.6458 4.61096 44.621 4.61096ZM56.3533 4.61096C57.4381 4.61096 58.3766 4.81588 59.1693 5.22576C59.9616 5.62356 60.6322 6.21426 61.1808 6.99781L59.8642 8.24548C59.4006 7.54629 58.8768 7.04605 58.2916 6.74466C57.7184 6.43125 57.0358 6.27452 56.2436 6.27452C55.6585 6.27452 55.1766 6.35286 54.799 6.50959C54.421 6.66632 54.1408 6.87725 53.9579 7.14247C53.7869 7.39562 53.7019 7.68493 53.7019 8.01041C53.7019 8.38413 53.8299 8.70961 54.0859 8.98685C54.3538 9.2641 54.8475 9.48108 55.567 9.63781L58.0173 10.1803C59.1876 10.4334 60.0164 10.8192 60.5042 11.3375C60.9915 11.8559 61.2356 12.5129 61.2356 13.3085C61.2356 14.0439 61.0345 14.6827 60.6322 15.2252C60.2299 15.7677 59.669 16.1836 58.9499 16.4729C58.2427 16.7622 57.4075 16.9069 56.4448 16.9069C55.5913 16.9069 54.8233 16.7984 54.1408 16.5814C53.4578 16.3644 52.8608 16.0691 52.3488 15.6953C51.8368 15.3216 51.4162 14.8937 51.087 14.4115L52.4402 13.0734C52.6962 13.4953 53.0189 13.8751 53.4093 14.2126C53.7993 14.5381 54.2505 14.7912 54.7625 14.9721C55.2864 15.1529 55.8656 15.2433 56.4996 15.2433C57.0601 15.2433 57.5419 15.177 57.9442 15.0444C58.3584 14.9118 58.6692 14.7189 58.8768 14.4658C59.0962 14.2005 59.2059 13.8871 59.2059 13.5255C59.2059 13.1759 59.0838 12.8685 58.8402 12.6033C58.6084 12.3381 58.1696 12.1332 57.5236 11.9885L54.8722 11.3918C54.1408 11.2351 53.5373 11.0121 53.0619 10.7227C52.5865 10.4334 52.2326 10.0839 52.0013 9.67398C51.7696 9.25207 51.6539 8.78194 51.6539 8.26357C51.6539 7.58851 51.8368 6.97973 52.2025 6.43726C52.5801 5.88273 53.1227 5.44274 53.8299 5.11726C54.5366 4.77971 55.3778 4.61096 56.3533 4.61096Z" fill="white"/>
<path d="M39.771 28.4794H25.5996V28.9315H39.771V28.4794Z" fill="#999999"/>
<path d="M61.7142 0.226013H2.28566C1.14953 0.226013 0.228516 1.13678 0.228516 2.26026V26.6712C0.228516 27.7947 1.14953 28.7055 2.28566 28.7055H61.7142C62.8504 28.7055 63.7714 27.7947 63.7714 26.6712V2.26026C63.7714 1.13678 62.8504 0.226013 61.7142 0.226013Z" stroke="white"/>
<path d="M39.7711 28.0274H25.1426V29.3836H39.7711V28.0274Z" fill="#024959"/>
<path d="M28.2188 31.1918V26.4181H31.6053V26.9606H28.8039V28.5012H30.9836V29.0436H28.8039V30.6493H31.715V31.1918H28.2188ZM36.5767 26.4181V29.4125C36.5767 30.0249 36.4134 30.4878 36.0867 30.8012C35.76 31.1098 35.2919 31.2641 34.6823 31.2641C34.0777 31.2641 33.6096 31.1098 33.278 30.8012C32.9513 30.4878 32.7879 30.0249 32.7879 29.4125V26.4181H33.3731V29.2678C33.3731 29.7645 33.478 30.131 33.6876 30.3672C33.9022 30.6035 34.2337 30.7217 34.6823 30.7217C35.131 30.7217 35.4601 30.6035 35.6698 30.3672C35.8843 30.131 35.9916 29.7645 35.9916 29.2678V26.4181H36.5767Z" fill="white"/>
</g>
<defs>
<clipPath id="clip0_207_2226">
<rect width="64" height="33" fill="white"/>
</clipPath>
</defs>
</svg>
